<svg width="18" height="18" viewBox="0 0 18 18" fill="none" xmlns="http://www.w3.org/2000/svg">
<path fill-rule="evenodd" clip-rule="evenodd" d="M6 4C6 3.20435 6.31607 2.44129 6.87868 1.87868C7.44129 1.31607 8.20435 1 9 1C9.79565 1 10.5587 1.31607 11.1213 1.87868C11.6839 2.44129 12 3.20435 12 4C12 4.79565 11.6839 5.55871 11.1213 6.12132C10.5587 6.68393 9.79565 7 9 7C8.20435 7 7.44129 6.68393 6.87868 6.12132C6.31607 5.55871 6 4.79565 6 4ZM9 0C7.93913 0 6.92172 0.421427 6.17157 1.17157C5.42143 1.92172 5 2.93913 5 4C5 5.06087 5.42143 6.07828 6.17157 6.82843C6.92172 7.57857 7.93913 8 9 8C10.0609 8 11.0783 7.57857 11.8284 6.82843C12.5786 6.07828 13 5.06087 13 4C13 2.93913 12.5786 1.92172 11.8284 1.17157C11.0783 0.421427 10.0609 0 9 0ZM14.58 12.15C15.7 12.97 16.41 14.39 16.49 17H1.51C1.59 14.4 2.3 12.97 3.41 12.15C4.66 11.25 6.5 11 9 11C11.5 11 13.35 11.26 14.58 12.15ZM9 10C6.5 10 4.35 10.24 2.83 11.35C1.27 12.48 0.5 14.43 0.5 17.5V18H17.5V17.5C17.5 14.43 16.73 12.48 15.17 11.35C13.65 10.25 11.5 10 9 10Z" fill="black"/>
</svg>
